<?xml version="1.0" encoding="UTF-8"?>
<svg id="Capa_2" data-name="Capa 2" xmlns="http://www.w3.org/2000/svg" xmlns:xlink="http://www.w3.org/1999/xlink" viewBox="0 0 554.96 286.42">
  <defs>
    <style>
      .cls-1 {
        fill: url(#Degradado_sin_nombre_4-2);
      }

      .cls-2 {
        fill: url(#Degradado_sin_nombre_4);
      }

      .cls-3 {
        fill: url(#Degradado_sin_nombre_4-3);
      }
    </style>
    <linearGradient id="Degradado_sin_nombre_4" data-name="Degradado sin nombre 4" x1="-15.66" y1="157.65" x2="66.58" y2="239.55" gradientUnits="userSpaceOnUse">
      <stop offset=".16" stop-color="#ed8d2e"/>
      <stop offset=".74" stop-color="#ed3b0a" stop-opacity=".99"/>
    </linearGradient>
    <linearGradient id="Degradado_sin_nombre_4-2" data-name="Degradado sin nombre 4" x1="45.54" y1="111.04" x2="158.89" y2="223.92" xlink:href="#Degradado_sin_nombre_4"/>
    <linearGradient id="Degradado_sin_nombre_4-3" data-name="Degradado sin nombre 4" x1="152.72" y1="77.98" x2="201.52" y2="184.39" xlink:href="#Degradado_sin_nombre_4"/>
  </defs>
  <g id="Logotipo_1_1500_x_1500_px" data-name="Logotipo 1 1500 x 1500 px">
    <g id="Elementos_gráficos" data-name="Elementos gráficos">
      <rect class="cls-2" x="0" y="126.97" width="50.91" height="143.25" rx="25.46" ry="25.46"/>
      <rect class="cls-1" x="76.76" y="64.74" width="50.91" height="205.48" rx="25.46" ry="25.46"/>
      <rect class="cls-3" x="153.51" y=".22" width="50.91" height="270" rx="25.46" ry="25.46"/>
    </g>
    <g id="Texto">
      <g id="Justo_como_en_casa" data-name="Justocomoen casa">
        <path d="M286.02,126.97c-.97-2.69-1.62-4.33-1.62-12.85v-16.43c0-9.71-3.56-13.29-11.64-13.29h-6.15v42.57h-17.79V22.4h26.85c18.44,0,26.36,7.92,26.36,24.05v8.22c0,10.76-3.72,17.78-11.64,21.21,8.9,3.44,11.81,11.35,11.81,22.26v16.13c0,5.08.16,8.81,1.94,12.7h-18.11ZM266.61,37.34v32.12h6.95c6.63,0,10.67-2.69,10.67-11.05v-10.31c0-7.47-2.75-10.76-9.06-10.76h-8.57Z"/>
        <path d="M331.62,66.47h24.42v14.94h-24.42v30.62h30.73v14.94h-48.52V22.4h48.52v14.94h-30.73v29.13Z"/>
        <path d="M426.07,48.25v13.59c0,16.73-8.73,25.84-26.52,25.84h-8.41v39.29h-17.79V22.4h26.2c17.79,0,26.52,9.11,26.52,25.84ZM391.13,37.34v35.4h8.41c5.66,0,8.73-2.39,8.73-9.86v-15.69c0-7.47-3.07-9.86-8.73-9.86h-8.41Z"/>
        <path d="M432.86,47.5c0-16.73,9.54-26.29,27.01-26.29s27.01,9.56,27.01,26.29v54.38c0,16.73-9.54,26.29-27.01,26.29s-27.01-9.56-27.01-26.29v-54.38ZM450.65,102.92c0,7.47,3.56,10.31,9.22,10.31s9.22-2.84,9.22-10.31v-56.47c0-7.47-3.56-10.31-9.22-10.31s-9.22,2.84-9.22,10.31v56.47Z"/>
        <path d="M275.5,201.42h24.91v33.16c0,16.73-9.06,26.29-26.52,26.29s-26.52-9.56-26.52-26.29v-54.38c0-16.73,9.06-26.29,26.52-26.29s26.52,9.56,26.52,26.29v10.16h-16.82v-11.2c0-7.47-3.56-10.31-9.22-10.31s-9.22,2.84-9.22,10.31v56.47c0,7.47,3.56,10.16,9.22,10.16s9.22-2.69,9.22-10.16v-19.27h-8.09v-14.94Z"/>
        <path d="M369.31,259.68h-17.95l-3.07-18.97h-21.83l-3.07,18.97h-16.33l18.11-104.57h26.04l18.11,104.57ZM328.71,226.52h17.14l-8.57-52.88-8.57,52.88Z"/>
        <path d="M414.75,259.68c-.97-2.69-1.62-4.33-1.62-12.85v-16.43c0-9.71-3.56-13.29-11.64-13.29h-6.15v42.57h-17.79v-104.57h26.85c18.44,0,26.36,7.92,26.36,24.05v8.22c0,10.76-3.72,17.78-11.64,21.21,8.9,3.44,11.81,11.35,11.81,22.26v16.13c0,5.08.16,8.81,1.94,12.7h-18.11ZM395.34,170.05v32.12h6.95c6.63,0,10.67-2.69,10.67-11.05v-10.31c0-7.47-2.75-10.76-9.06-10.76h-8.57Z"/>
        <path d="M442.56,155.11h17.79v89.63h29.27v14.94h-47.06v-104.57Z"/>
        <path d="M495.93,180.21c0-16.73,9.54-26.29,27.01-26.29s27.01,9.56,27.01,26.29v54.38c0,16.73-9.54,26.29-27.01,26.29s-27.01-9.56-27.01-26.29v-54.38ZM513.72,235.63c0,7.47,3.56,10.31,9.22,10.31s9.22-2.84,9.22-10.31v-56.47c0-7.47-3.56-10.31-9.22-10.31s-9.22,2.84-9.22,10.31v56.47Z"/>
      </g>
    </g>
  </g>
</svg>